# xmcd
#
# Track frame offsets:
#	150
#	22142
#	43269
#	60917
#	76739
#	92943
#	118355
#	135046
#
# Disc length: 2001 seconds
#
# Revision: 0
# Processed by: cddbd v1.5.2PL0 Copyright (c) Steve Scherf et al.
# Submitted via: EasyCDDAExtractor 2010.4.0.0
#
DISCID=6207cf08
DTITLE=Shaan - Tanha Dil
DYEAR=2000
DGENRE=Pop
TTITLE0=Tanha Dil
TTITLE1=Gum Sum Ho Kyon
TTITLE2=Tujh Sa Na Koi
TTITLE3=Is Pyar Mein
TTITLE4=Bhool Ja
TTITLE5=Faasle
TTITLE6=Baby! Tu Hai Kahan
TTITLE7=Shaan Se
EXTD=
EXTT0=
EXTT1=
EXTT2=
EXTT3=
EXTT4=
EXTT5=
EXTT6=
EXTT7=
PLAYORDER=
